<svg width="78" height="66" viewBox="0 0 78 66" fill="none" xmlns="http://www.w3.org/2000/svg">
<path d="M21.1887 14.6751L27.3507 18.9609C27.8198 19.2378 28.225 19.6095 28.5401 20.0521C28.8552 20.4946 29.0732 20.9981 29.1798 21.5297C29.2865 22.0613 29.2794 22.6093 29.1592 23.1381C29.0389 23.6669 28.8081 24.1646 28.4817 24.599L24.063 30.8687C23.5529 31.5909 22.81 32.1185 21.9572 32.3643C21.1044 32.6101 20.1927 32.5593 19.3729 32.2205C18.553 31.8816 17.8741 31.2749 17.4483 30.5007C17.0225 29.7265 16.8754 28.8311 17.0313 27.9625C15.1732 28.4782 13.3634 29.1524 11.622 29.9775C9.9762 30.7835 8.9232 31.5585 8.3304 32.1901C7.5972 32.969 7.9794 33.5541 8.619 34.116L9.0714 34.4841C10.3584 35.4916 12.4644 36.5728 15.4128 37.5454C21.2706 39.4868 29.6088 40.75 39 40.75C48.3912 40.75 56.7294 39.4829 62.5872 37.5454C65.5356 36.5689 67.6416 35.4916 68.9286 34.4841L69.4122 34.0927C70.0245 33.5696 70.4184 33.0271 69.7554 32.2793C69.2484 31.7058 68.3319 30.9889 66.8694 30.2255C63.9405 28.691 59.5101 27.3193 53.9604 26.4048C53.4514 26.3257 52.9632 26.1473 52.524 25.8797C52.0848 25.6122 51.7033 25.2608 51.4015 24.8459C51.0997 24.431 50.8837 23.9608 50.7659 23.4625C50.648 22.9642 50.6307 22.4476 50.715 21.9426C50.7992 21.4376 50.9833 20.9542 51.2566 20.5203C51.53 20.0864 51.8871 19.7106 52.3075 19.4146C52.7278 19.1187 53.203 18.9084 53.7056 18.7959C54.2082 18.6834 54.7282 18.671 55.2357 18.7594C61.2456 19.7514 66.5691 21.3052 70.5003 23.3667C74.1078 25.25 78 28.3616 78 33C78 36.3015 75.9759 38.8319 73.7568 40.5679C71.4909 42.3426 68.4528 43.7686 65.052 44.8962C58.2075 47.1631 48.9957 48.5 39 48.5C29.0043 48.5 19.7925 47.1631 12.948 44.8962C9.5433 43.7725 6.5091 42.3388 4.2432 40.5679C2.0202 38.8319 0 36.3054 0 33C0 30.5355 1.1505 28.474 2.6286 26.8969C4.0872 25.3469 6.0333 24.072 8.1744 23.0219C10.3779 21.9446 12.9792 21.0069 15.873 20.2319C15.2937 19.5002 14.9988 18.5857 15.0424 17.6557C15.086 16.7257 15.4652 15.8424 16.1105 15.1673C16.7558 14.4923 17.6241 14.0707 18.5566 13.9796C19.4891 13.8885 20.4234 14.1379 21.1887 14.6751ZM39 2C40.0343 2 41.0263 2.40826 41.7577 3.13496C42.4891 3.86167 42.9 4.84729 42.9 5.875V36.875H35.1V5.875C35.1 4.84729 35.5109 3.86167 36.2423 3.13496C36.9737 2.40826 37.9657 2 39 2ZM35.1 60.125V52.375H42.9V60.125C42.9 61.1527 42.4891 62.1383 41.7577 62.865C41.0263 63.5917 40.0343 64 39 64C37.9657 64 36.9737 63.5917 36.2423 62.865C35.5109 62.1383 35.1 61.1527 35.1 60.125Z" fill="#242424"/>
<path d="M10 62L68 4" stroke="#242424" stroke-width="7" stroke-linecap="round"/>
</svg>
