<svg width="78" height="62" viewBox="0 0 78 62" fill="none" xmlns="http://www.w3.org/2000/svg">
<path d="M21.1887 12.6751L27.3507 16.9609C27.8198 17.2378 28.225 17.6095 28.5401 18.0521C28.8552 18.4946 29.0732 18.9981 29.1798 19.5297C29.2865 20.0613 29.2794 20.6093 29.1592 21.1381C29.0389 21.6669 28.8081 22.1646 28.4817 22.599L24.063 28.8687C23.5529 29.5909 22.81 30.1185 21.9572 30.3643C21.1044 30.6101 20.1927 30.5593 19.3729 30.2205C18.553 29.8816 17.8741 29.2749 17.4483 28.5007C17.0225 27.7265 16.8754 26.8311 17.0313 25.9625C15.1732 26.4782 13.3634 27.1524 11.622 27.9775C9.9762 28.7835 8.9232 29.5585 8.3304 30.1901C7.5972 30.969 7.9794 31.5541 8.619 32.116L9.0714 32.4841C10.3584 33.4916 12.4644 34.5728 15.4128 35.5454C21.2706 37.4868 29.6088 38.75 39 38.75C48.3912 38.75 56.7294 37.4829 62.5872 35.5454C65.5356 34.5689 67.6416 33.4916 68.9286 32.4841L69.4122 32.0927C70.0245 31.5696 70.4184 31.0271 69.7554 30.2793C69.2484 29.7058 68.3319 28.9889 66.8694 28.2255C63.9405 26.691 59.5101 25.3193 53.9604 24.4048C53.4514 24.3257 52.9632 24.1473 52.524 23.8797C52.0848 23.6122 51.7033 23.2608 51.4015 22.8459C51.0997 22.431 50.8837 21.9608 50.7659 21.4625C50.648 20.9642 50.6307 20.4476 50.715 19.9426C50.7992 19.4376 50.9833 18.9542 51.2566 18.5203C51.53 18.0864 51.8871 17.7106 52.3075 17.4146C52.7278 17.1187 53.203 16.9084 53.7056 16.7959C54.2082 16.6834 54.7282 16.671 55.2357 16.7594C61.2456 17.7514 66.5691 19.3052 70.5003 21.3667C74.1078 23.25 78 26.3616 78 31C78 34.3015 75.9759 36.8319 73.7568 38.5679C71.4909 40.3426 68.4528 41.7686 65.052 42.8962C58.2075 45.1631 48.9957 46.5 39 46.5C29.0043 46.5 19.7925 45.1631 12.948 42.8962C9.5433 41.7725 6.5091 40.3388 4.2432 38.5679C2.0202 36.8319 0 34.3054 0 31C0 28.5355 1.1505 26.474 2.6286 24.8969C4.0872 23.3469 6.0333 22.072 8.1744 21.0219C10.3779 19.9446 12.9792 19.0069 15.873 18.2319C15.2937 17.5002 14.9988 16.5857 15.0424 15.6557C15.086 14.7257 15.4652 13.8424 16.1105 13.1673C16.7558 12.4923 17.6241 12.0707 18.5566 11.9796C19.4891 11.8885 20.4234 12.1379 21.1887 12.6751ZM39 0C40.0343 0 41.0263 0.408259 41.7577 1.13496C42.4891 1.86167 42.9 2.84729 42.9 3.875V34.875H35.1V3.875C35.1 2.84729 35.5109 1.86167 36.2423 1.13496C36.9737 0.408259 37.9657 0 39 0ZM35.1 58.125V50.375H42.9V58.125C42.9 59.1527 42.4891 60.1383 41.7577 60.865C41.0263 61.5917 40.0343 62 39 62C37.9657 62 36.9737 61.5917 36.2423 60.865C35.5109 60.1383 35.1 59.1527 35.1 58.125Z" fill="#242424"/>
</svg>
