<svg width="94" height="94" viewBox="0 0 94 94" fill="none" xmlns="http://www.w3.org/2000/svg">
<path fill-rule="evenodd" clip-rule="evenodd" d="M0 47C0 21.0419 21.0419 0 47 0C72.9581 0 94 21.0419 94 47C94 72.9581 72.9581 94 47 94C21.0419 94 0 72.9581 0 47ZM9.4 47C9.4 56.9721 13.3614 66.5358 20.4128 73.5872C27.4642 80.6386 37.0279 84.6 47 84.6C56.9721 84.6 66.5358 80.6386 73.5872 73.5872C80.6386 66.5358 84.6 56.9721 84.6 47C84.6 37.0279 80.6386 27.4642 73.5872 20.4128C66.5358 13.3614 56.9721 9.4 47 9.4C37.0279 9.4 27.4642 13.3614 20.4128 20.4128C13.3614 27.4642 9.4 37.0279 9.4 47ZM29.3844 39.7056C30.5265 37.318 32.4065 30.55 33.7648 30.55C35.1184 30.55 34.6249 33.9481 35.8375 34.2442C36.8574 34.4933 36.0725 32.7261 38.9066 32.4112C41.7407 32.0963 44.8286 33.8306 44.8286 33.8306C44.8286 33.8306 48.175 34.6625 51.2629 33.8306C51.2629 33.8306 49.632 31.3584 51.6295 30.55C53.6223 29.7416 56.3389 32.7308 56.4376 34.6625C56.5363 36.5942 52.0008 37.8914 52.0008 37.8914L56.4376 40.5563C56.4376 40.5563 57.7395 36.4297 60.5125 36.3874C62.98 36.3404 66.0726 40.8524 64.625 42.8875C63.1774 44.9226 62.2468 43.522 62.2468 43.522C62.2468 43.522 57.8288 47.9964 56.4376 48.8001C55.0511 49.5991 53.11 48.8001 53.11 48.8001C53.11 48.8001 52.2875 50.3229 53.11 51.0232C54.7785 52.7434 59.1119 54.4542 59.1119 54.4542C59.1119 54.4542 72.4364 56.6209 72.85 59.3375C73.2636 62.0541 62.2468 75.7875 60.5125 75.7875H56.4C54.7221 72.8265 59.1119 63.3607 59.1119 63.3607C59.1119 63.3607 56.8559 60.8603 56.4 59.3375C55.9488 57.8147 57.2742 55.1357 57.2742 55.1357L51.2629 52.3674C51.2629 52.3674 48.0669 52.3674 46.483 51.1125C44.8991 49.8576 44.0625 42.8875 44.0625 42.8875L38.3285 38.6857C38.3285 38.6857 33.3465 45.0119 31.725 44.2035C30.0988 43.3951 28.247 42.0885 29.3844 39.7056ZM60.2634 29.845C56.2966 29.845 46.7509 24.7972 48.3536 22.09C48.3536 18.2078 58.3881 18.7906 60.5407 18.7906C62.6933 18.7906 67.9667 20.4544 70.8948 22.7856C73.8229 25.1121 69.6587 28.4397 68.2064 29.845C66.7494 31.255 64.2349 29.845 60.2634 29.845Z" fill="#79895E"/>
</svg>
